<?xml version="1.0" encoding="UTF-8"?>
<svg width="752pt" height="752pt" version="1.1" viewBox="0 0 752 752" xmlns="http://www.w3.org/2000/svg">
 <g>
  <path d="m432.83 437.57c-2.6172 0-4.7344 2.1211-4.7344 4.7344v37.887c0 7.8359-6.3711 14.207-14.207 14.207l-135.79 0.003907c-3.793 0-7.3633 1.4766-10.047 4.1641l-34.133 34.129v-24.086c0-7.8359-6.3711-14.207-14.207-14.207h-18.941c-7.8359 0-14.207-6.3711-14.207-14.207v-151.55c0-7.8359 6.3711-14.207 14.207-14.207h99.453c2.6172 0 4.7344-2.1211 4.7344-4.7344 0-2.6172-2.1211-4.7344-4.7344-4.7344l-99.453-0.003906c-13.055 0-23.68 10.625-23.68 23.68v151.55c0 13.055 10.625 23.68 23.68 23.68h18.941c2.6094 0 4.7344 2.125 4.7344 4.7344v35.52c0 1.9141 1.1523 3.6406 2.9219 4.375 0.58984 0.24219 1.207 0.35938 1.8164 0.35938 1.2344 0 2.4414-0.48047 3.3477-1.3867l42.215-42.215c0.89453-0.89844 2.0859-1.3906 3.3516-1.3906h135.78c13.055 0 23.68-10.625 23.68-23.68v-37.887c0-2.6133-2.1211-4.7344-4.7344-4.7344z"/>
  <path d="m551.23 229.19h-213.11c-13.055 0-23.68 10.625-23.68 23.68v37.887c0 2.6172 2.1211 4.7344 4.7344 4.7344 2.6172 0 4.7344-2.1211 4.7344-4.7344v-37.887c0-7.8359 6.3711-14.207 14.207-14.207h213.11c7.8359 0 14.207 6.3711 14.207 14.207v151.55c0 7.8359-6.3711 14.207-14.207 14.207h-18.941c-7.8359 0-14.207 6.3711-14.207 14.207v24.086l-34.133-34.133c-2.6797-2.6836-6.25-4.1602-10.043-4.1602h-22.125c-2.6172 0-4.7344 2.1211-4.7344 4.7344 0 2.6172 2.1211 4.7344 4.7344 4.7344h22.121c1.2656 0 2.457 0.49219 3.3516 1.3867l42.215 42.215c0.91016 0.91016 2.1172 1.3906 3.3516 1.3906 0.60938 0 1.2266-0.11719 1.8125-0.35938 1.7695-0.73437 2.9219-2.4609 2.9219-4.375v-35.52c0-2.6094 2.125-4.7344 4.7344-4.7344h18.941c13.055 0 23.68-10.625 23.68-23.68l0.003906-151.55c0-13.055-10.625-23.68-23.68-23.68z"/>
  <path d="m399.68 338.11h-47.355c-2.6172 0-4.7344 2.1211-4.7344 4.7344v47.359c0 2.6172 2.1211 4.7344 4.7344 4.7344h47.359c2.6172 0 4.7344-2.1211 4.7344-4.7344v-47.355c0-2.6172-2.1211-4.7383-4.7383-4.7383z"/>
  <path d="m456.51 399.68c0-2.6172-2.1211-4.7344-4.7344-4.7344h-14.207v-23.68h14.207c2.6172 0 4.7344-2.1211 4.7344-4.7344 0-2.6172-2.1211-4.7344-4.7344-4.7344h-14.207v-23.68h14.207c2.6172 0 4.7344-2.1211 4.7344-4.7344 0-2.6172-2.1211-4.7344-4.7344-4.7344h-14.207c0-13.055-10.625-23.68-23.68-23.68v-14.207c0-2.6172-2.1211-4.7344-4.7344-4.7344-2.6172 0-4.7344 2.1211-4.7344 4.7344v14.207h-23.68v-14.207c0-2.6172-2.1211-4.7344-4.7344-4.7344-2.6172 0-4.7344 2.1211-4.7344 4.7344v14.207h-23.68v-14.207c0-2.6172-2.1211-4.7344-4.7344-4.7344-2.6172 0-4.7344 2.1211-4.7344 4.7344v14.207c-13.055 0-23.68 10.625-23.68 23.68h-14.207c-2.6172 0-4.7344 2.1211-4.7344 4.7344 0 2.6172 2.1211 4.7344 4.7344 4.7344h14.207v23.68h-14.207c-2.6172 0-4.7344 2.1211-4.7344 4.7344 0 2.6172 2.1211 4.7344 4.7344 4.7344h14.207v23.68h-14.207c-2.6172 0-4.7344 2.1211-4.7344 4.7344 0 2.6172 2.1211 4.7344 4.7344 4.7344h14.207c0 13.055 10.625 23.68 23.68 23.68v14.207c0 2.6172 2.1211 4.7344 4.7344 4.7344 2.6172 0 4.7344-2.1211 4.7344-4.7344v-14.207h23.68v14.207c0 2.6172 2.1211 4.7344 4.7344 4.7344 2.6172 0 4.7344-2.1211 4.7344-4.7344v-14.207h23.68v14.207c0 2.6172 2.1211 4.7344 4.7344 4.7344 2.6172 0 4.7344-2.1211 4.7344-4.7344v-14.207c13.055 0 23.68-10.625 23.68-23.68h14.207c2.6133 0.003907 4.7344-2.1172 4.7344-4.7344zm-28.418 4.7383c0 7.8359-6.3711 14.207-14.207 14.207h-75.773c-7.8359 0-14.207-6.3711-14.207-14.207v-75.773c0-7.8359 6.3711-14.207 14.207-14.207h75.773c7.8359 0 14.207 6.3711 14.207 14.207z"/>
 </g>
</svg>
