<?xml version="1.0" standalone="no"?>
<!DOCTYPE svg PUBLIC "-//W3C//DTD SVG 20010904//EN"
 "http://www.w3.org/TR/2001/REC-SVG-20010904/DTD/svg10.dtd">
<svg version="1.0" xmlns="http://www.w3.org/2000/svg"
 width="700.000000pt" height="700.000000pt" viewBox="0 0 700.000000 700.000000"
 preserveAspectRatio="xMidYMid meet">
<metadata>
Created by potrace 1.14, written by Peter Selinger 2001-2017
</metadata>
<g transform="translate(0.000000,700.000000) scale(0.100000,-0.100000)"
fill="#000000" stroke="none">
<path d="M3093 4858 c-47 -12 -96 -43 -119 -75 -41 -57 -46 -85 -47 -294 -2
-210 3 -239 41 -239 45 1 46 8 47 222 1 221 6 243 58 282 28 21 31 21 1054 23
599 1 1036 -2 1050 -8 29 -11 56 -36 73 -69 10 -19 13 -181 13 -761 0 -734 0
-737 -21 -771 -32 -51 -61 -61 -198 -63 -195 -4 -217 -25 -221 -210 -1 -66 -2
-126 -3 -133 0 -7 -76 64 -170 157 -194 192 -184 187 -354 185 -93 -1 -111 -4
-122 -19 -21 -28 -17 -53 9 -61 12 -4 73 -8 134 -9 l113 -1 215 -213 c209
-209 215 -214 237 -199 22 15 23 20 26 201 2 153 5 187 18 198 11 9 54 13 137
14 134 2 175 15 229 72 60 63 58 32 58 855 0 707 -2 755 -19 793 -28 62 -89
111 -153 123 -65 13 -2038 13 -2085 0z"/>
<path d="M3167 4328 c-12 -10 -17 -32 -18 -89 l-2 -77 -37 -5 c-82 -11 -166
-94 -177 -176 l-6 -41 -78 0 c-67 0 -80 -3 -89 -19 -14 -27 -13 -37 6 -56 10
-10 31 -16 53 -15 20 1 52 2 72 1 l35 -1 0 -107 -1 -108 -74 -3 c-77 -3 -101
-13 -101 -41 0 -36 17 -45 92 -47 40 -1 76 -3 79 -3 8 -1 8 -211 0 -212 -3 -1
-36 -3 -73 -4 -70 -2 -98 -15 -98 -45 0 -32 29 -44 104 -45 l71 -1 6 -34 c18
-98 84 -161 192 -185 27 -5 27 -7 25 -74 -2 -72 10 -101 41 -101 36 0 45 17
46 87 1 38 4 73 7 79 5 8 173 12 209 5 3 0 5 -31 4 -67 -1 -80 16 -111 57
-101 30 8 36 28 33 111 -1 35 2 56 9 57 58 7 206 2 207 -6 1 -5 2 -41 3 -78 1
-69 11 -87 47 -87 30 0 43 29 43 103 1 41 5 72 11 72 97 5 204 105 205 193 0
24 0 24 86 26 64 1 94 16 94 46 0 32 -28 44 -104 44 l-73 0 1 103 c1 68 5 106
13 111 6 4 38 6 70 5 62 -2 93 14 93 47 0 30 -25 40 -102 41 l-75 1 1 107 1
106 70 3 c73 3 105 19 105 52 0 29 -23 39 -99 42 l-74 3 -11 46 c-22 85 -77
139 -163 161 l-49 13 -1 60 c-1 33 -2 68 -2 78 -1 9 -12 23 -26 29 -20 9 -28
8 -43 -5 -14 -13 -18 -31 -17 -91 l0 -75 -110 2 -110 2 0 72 c-1 76 -10 96
-45 98 -33 3 -44 -22 -45 -98 l0 -72 -109 0 -110 0 -1 72 c-2 92 -25 123 -68
91z m749 -274 c68 -37 69 -44 69 -469 -1 -417 -2 -421 -62 -461 -26 -17 -54
-18 -423 -18 -373 0 -397 1 -424 19 -59 40 -61 54 -61 466 1 401 2 417 51 452
39 29 91 32 466 31 319 -2 353 -3 384 -20z"/>
<path d="M3261 3848 c-25 -9 -27 -24 -26 -275 0 -167 4 -226 13 -235 10 -10
72 -13 249 -14 205 -1 238 1 252 15 14 14 16 49 16 254 0 221 -2 239 -19 249
-20 11 -456 17 -485 6z"/>
<path d="M1875 4159 c-104 -9 -147 -32 -193 -103 l-27 -41 0 -782 0 -781 31
-44 c19 -26 53 -54 84 -70 48 -26 61 -28 170 -28 94 0 122 -3 134 -16 13 -13
16 -45 16 -199 0 -172 1 -185 19 -195 11 -5 25 -10 31 -10 6 0 106 95 222 210
l212 210 655 1 c361 0 663 2 672 4 69 13 141 80 161 150 15 55 15 432 0 447
-19 19 -49 19 -63 1 -11 -12 -14 -63 -15 -207 -1 -105 -2 -199 -3 -208 -2 -24
-50 -78 -79 -89 -14 -6 -297 -10 -680 -10 -400 0 -665 -4 -681 -10 -14 -6
-101 -85 -193 -177 -157 -156 -168 -165 -169 -137 -4 232 -4 233 -25 262 -37
51 -76 63 -201 62 -68 0 -121 4 -135 12 -42 21 -68 52 -74 87 -4 19 -7 360 -7
758 l0 723 27 36 c16 20 40 41 54 47 17 6 205 11 515 12 422 1 489 3 497 16
13 20 12 33 -3 54 -12 16 -45 17 -447 19 -239 1 -466 -1 -505 -4z"/>
</g>
</svg>
